<svg xmlns="http://www.w3.org/2000/svg" version="1.1" viewBox="41.728 390.3488 987.136 212.992" style="max-height: 500px" width="987.136" height="212.992">
<path transform="translate(121.9609375,409.8984375)" fill="#22767F" d="M0 0 C19.86988672 4.12542706 40.33713314 10.96044319 57.234375 22.39599609 C59.72247614 24.02595914 61.47934782 25.10067265 64.49609375 25.10546875 C67.98457821 23.72829439 71.14080612 21.89211513 74.3515625 19.9765625 C95.24068955 7.94302568 129.45070714 -7.42573722 154.0390625 -1.8984375 C156.17338471 -0.12760248 156.90424347 1.29326443 157.35961914 4.0234375 C157.55875324 6.30216234 157.66020896 8.56520916 157.7265625 10.8515625 C157.76072266 11.64433594 157.79488281 12.43710937 157.83007812 13.25390625 C157.91225354 15.20263754 157.97734295 17.15207612 158.0390625 19.1015625 C159.21984375 19.06675781 160.400625 19.03195312 161.6171875 18.99609375 C163.17446492 18.96795018 164.73175775 18.94065063 166.2890625 18.9140625 C167.06636719 18.88892578 167.84367188 18.86378906 168.64453125 18.83789062 C169.39863281 18.82822266 170.15273438 18.81855469 170.9296875 18.80859375 C171.96657715 18.78502808 171.96657715 18.78502808 173.02441406 18.76098633 C175.78862116 19.22827534 177.02237401 20.15692463 179.0390625 22.1015625 C179.53684044 24.67999268 179.53684044 24.67999268 179.53353882 27.83300781 C179.5419278 29.0276062 179.55031677 30.22220459 179.55895996 31.45300293 C179.54772095 32.76530884 179.53648193 34.07761475 179.52490234 35.4296875 C179.527048 36.82426306 179.53092538 38.21883688 179.53640747 39.61340332 C179.54611075 43.40273819 179.53078568 47.19160274 179.51050138 50.98088074 C179.49294908 54.94330317 179.49645511 58.90571068 179.4972229 62.86816406 C179.49534913 69.52286663 179.47797522 76.17738694 179.45068359 82.83203125 C179.41923194 90.52955337 179.40868736 98.22687582 179.4101547 105.92445755 C179.41137487 113.32430039 179.4011676 120.72407809 179.38457108 128.12390137 C179.37750399 131.2753551 179.37384438 134.42678579 179.37278366 137.57824707 C179.37077643 141.28827741 179.35858045 144.99813972 179.33845139 148.70811462 C179.32981012 150.7220996 179.33094541 152.73611904 179.33233643 154.75012207 C179.32380646 155.94472046 179.31527649 157.13931885 179.30648804 158.37011719 C179.30313635 159.41061218 179.29978466 160.45110718 179.29633141 161.52313232 C179.0390625 164.1015625 179.0390625 164.1015625 177.0390625 167.1015625 C173.91298349 168.14358884 171.81073938 168.20237653 168.53515625 168.1640625 C167.41471924 168.15552246 166.29428223 168.14698242 165.13989258 168.13818359 C163.32654419 168.12005615 163.32654419 168.12005615 161.4765625 168.1015625 C115.10214867 167.43470036 115.10214867 167.43470036 71.27514648 180.95385742 C66.75201452 183.20154876 63.91206144 183.31981223 59.0390625 182.1015625 C56.8058778 181.24722065 54.59776745 180.32544471 52.4140625 179.3515625 C28.01471772 169.07356432 0.58692718 167.80306865 -25.546875 168.18359375 C-26.81233154 168.19922363 -28.07778809 168.21485352 -29.3815918 168.23095703 C-31.84956633 168.26902677 -34.31734247 168.32532343 -36.78442383 168.40185547 C-37.90872803 168.42006348 -39.03303223 168.43827148 -40.19140625 168.45703125 C-41.18551514 168.48434326 -42.17962402 168.51165527 -43.20385742 168.53979492 C-46.8452163 167.96100813 -48.35174267 166.68060745 -50.9609375 164.1015625 C-51.58176327 161.39729118 -51.58176327 161.39729118 -51.57566833 158.24313354 C-51.58543198 157.04571533 -51.59519562 155.84829712 -51.60525513 154.61459351 C-51.59042084 153.30431183 -51.57558655 151.99403015 -51.56030273 150.64404297 C-51.56216689 149.24769657 -51.56620374 147.85135164 -51.57225037 146.45501709 C-51.58222896 142.665699 -51.56105094 138.87712834 -51.53377032 135.08791876 C-51.50995283 131.12504349 -51.51288539 127.16218336 -51.51246643 123.19924927 C-51.50783808 116.54627818 -51.48419171 109.89359324 -51.44799805 103.24072266 C-51.40623006 95.54258817 -51.38868124 87.84471124 -51.3853783 80.14646995 C-51.38178259 71.95711075 -51.36291567 63.76784457 -51.33825803 55.57852411 C-51.33202191 53.2152099 -51.32839037 50.85190275 -51.32522392 48.48858261 C-51.3193351 44.78017072 -51.30305516 41.07194394 -51.27861977 37.36360931 C-51.26759633 35.34825627 -51.26633903 33.3328573 -51.26531982 31.31747437 C-51.2553447 30.1256958 -51.24536957 28.93391724 -51.23509216 27.70602417 C-51.23044166 26.6659062 -51.22579115 25.62578823 -51.22099972 24.55415154 C-50.9609375 22.1015625 -50.9609375 22.1015625 -48.9609375 20.1015625 C-45.61504885 18.90392898 -42.42172564 19.03170796 -38.8984375 19.1015625 C-35.50044251 19.16876636 -33.19995778 19.18123593 -29.9609375 18.1015625 C-29.6309375 18.4315625 -29.3009375 18.7615625 -28.9609375 19.1015625 C-28.94635498 18.53646973 -28.93177246 17.97137695 -28.91674805 17.38916016 C-28.84237692 14.83426231 -28.74568508 12.28068752 -28.6484375 9.7265625 C-28.62587891 8.83710938 -28.60332031 7.94765625 -28.58007812 7.03125 C-28.54462891 6.18046875 -28.50917969 5.3296875 -28.47265625 4.453125 C-28.44647217 3.66760254 -28.42028809 2.88208008 -28.39331055 2.07275391 C-26.52307168 -6.45367671 -6.37547479 -1.20386207 0 0 Z M-15.9609375 11.1015625 C-15.98441056 22.44836292 -16.00202652 33.79515729 -16.01274967 45.14197731 C-16.01790378 50.4143219 -16.02486009 55.68664954 -16.03637695 60.95898438 C-16.08690332 84.69493788 -16.03658216 108.38532391 -14.9609375 132.1015625 C-14.17839096 132.27161301 -13.39584442 132.44166351 -12.58958435 132.61686707 C12.47173575 138.07799773 42.77965148 145.24694079 59.7734375 166.40234375 C60.52109375 167.29308594 61.26875 168.18382812 62.0390625 169.1015625 C62.6990625 169.1015625 63.3590625 169.1015625 64.0390625 169.1015625 C64.9993909 168.01359552 65.90602758 166.87814928 66.7890625 165.7265625 C85.72621319 143.62671241 116.93644333 137.12194434 144.0390625 132.1015625 C144.06433037 124.99911251 144.08189451 117.89667402 144.09399414 110.79418945 C144.09903599 108.37589078 144.10586928 105.95759517 144.11450195 103.53930664 C144.12657407 100.07176967 144.13229213 96.60427284 144.13671875 93.13671875 C144.14188004 92.04819107 144.14704132 90.95966339 144.15235901 89.83815002 C144.15243454 88.83718796 144.15251007 87.83622589 144.15258789 86.80493164 C144.1548085 85.91890762 144.15702911 85.03288361 144.15931702 84.12001038 C144.26334291 82.1045756 144.26334291 82.1045756 143.0390625 81.1015625 C143.3690625 81.1015625 143.6990625 81.1015625 144.0390625 81.1015625 C144.0390625 58.0015625 144.0390625 34.9015625 144.0390625 11.1015625 C136.47694447 11.731739 129.81039017 12.30109858 122.6015625 14.1640625 C121.33638794 14.48842285 121.33638794 14.48842285 120.0456543 14.81933594 C103.49520602 19.24581385 86.13903076 25.57130541 72.02978516 35.51806641 C68.66252216 37.8618108 66.7666323 39.07440209 62.5859375 39.23046875 C58.02062185 37.77741124 54.33214306 35.57161551 50.2890625 33.0390625 C31.05814029 21.49900925 6.84172686 10.96412568 -15.9609375 11.1015625 Z M-37.9609375 32.1015625 C-37.9609375 72.6915625 -37.9609375 113.2815625 -37.9609375 155.1015625 C-21.6259375 155.5965625 -21.6259375 155.5965625 -4.9609375 156.1015625 C19.63565341 157.78338068 19.63565341 157.78338068 28.0390625 159.1015625 C28.0390625 158.4415625 28.0390625 157.7815625 28.0390625 157.1015625 C12.03174922 150.23116698 -3.74777925 145.96105137 -21.0234375 143.6796875 C-24.9609375 143.1015625 -24.9609375 143.1015625 -26.9609375 142.1015625 C-28.17062978 136.38128184 -28.09679435 130.67778306 -28.07446289 124.85180664 C-28.07460892 123.84616669 -28.07475494 122.84052673 -28.0749054 121.80441284 C-28.07421177 118.49849245 -28.06644516 115.19262923 -28.05859375 111.88671875 C-28.05672762 109.58743826 -28.05530464 107.28815737 -28.05430603 104.98887634 C-28.05049623 98.95058079 -28.04067909 92.91230945 -28.02960205 86.87402344 C-28.01935485 80.70703458 -28.01480133 74.5400418 -28.00976562 68.37304688 C-27.99905542 56.28254147 -27.9819975 44.192054 -27.9609375 32.1015625 C-31.2609375 32.1015625 -34.5609375 32.1015625 -37.9609375 32.1015625 Z M157.0390625 32.1015625 C157.02875504 33.44793289 157.01844757 34.79430328 157.00782776 36.18147278 C156.91019858 48.85118599 156.80747451 61.52084894 156.69972324 74.19048023 C156.64448814 80.70452477 156.59106712 87.21857379 156.54174805 93.73266602 C156.49411327 100.01557586 156.44177067 106.29843024 156.38612175 112.58127403 C156.3656942 114.98190625 156.34698179 117.38255368 156.32998848 119.78321266 C156.30595346 123.13783915 156.27589746 126.49236044 156.24438477 129.84692383 C156.2386293 130.84601776 156.23287384 131.84511169 156.22694397 132.8744812 C156.21226074 134.24376015 156.21226074 134.24376015 156.19728088 135.64070129 C156.19082833 136.43436505 156.18437578 137.22802881 156.1777277 138.04574299 C156.0390625 140.1015625 156.0390625 140.1015625 155.0390625 143.1015625 C154.45640625 143.17149414 153.87375 143.24142578 153.2734375 143.31347656 C132.34780484 145.87160225 112.21955296 150.01606702 93.0390625 159.1015625 C97.36155543 160.40518096 101.0051051 159.54375726 105.3515625 158.7265625 C120.67314935 156.08609074 136.23226987 155.88964244 151.75 156.13793945 C156.61066425 156.19672009 161.22553821 155.79618607 166.0390625 155.1015625 C166.81685718 151.67130203 167.15503573 148.5347692 167.12135315 145.02055359 C167.11079391 143.52093834 167.11079391 143.52093834 167.10002136 141.99102783 C167.08707535 140.90561707 167.07412933 139.8202063 167.06079102 138.7019043 C167.05118347 137.55025284 167.04157593 136.39860138 167.03167725 135.21205139 C166.99871573 131.40823193 166.95837229 127.60452834 166.91796875 123.80078125 C166.89366487 121.1623424 166.86982144 118.52389928 166.84642029 115.88545227 C166.79036086 109.65236394 166.72898878 103.41933973 166.66569895 97.18632108 C166.59388663 90.0884334 166.5280106 82.99049448 166.46262848 75.8925451 C166.32803623 61.29548491 166.18579389 46.69850559 166.0390625 32.1015625 C163.0690625 32.1015625 160.0990625 32.1015625 157.0390625 32.1015625 Z M29.0390625 158.1015625 C29.0390625 158.7615625 29.0390625 159.4215625 29.0390625 160.1015625 C30.3590625 159.7715625 31.6790625 159.4415625 33.0390625 159.1015625 C31.7190625 158.7715625 30.3990625 158.4415625 29.0390625 158.1015625 Z"/>
<path transform="translate(616.949462890625,450.886474609375)" fill="#040607" d="M0 0 C0.83265381 0.00523682 1.66530762 0.01047363 2.52319336 0.01586914 C3.42231445 0.0190918 4.32143555 0.02231445 5.24780273 0.02563477 C6.66609375 0.03820312 6.66609375 0.03820312 8.11303711 0.05102539 C9.06243164 0.05553711 10.01182617 0.06004883 10.98999023 0.06469727 C13.3435708 0.0765243 15.69701292 0.09384445 18.05053711 0.11352539 C20.96044271 7.27440429 23.7095784 14.48475042 26.37866211 21.73852539 C26.77253113 22.80723877 27.16640015 23.87595215 27.57220459 24.97705078 C28.39647364 27.21545834 29.21997052 29.45415039 30.04272461 31.69311523 C31.30758156 35.1326816 32.57742441 38.57038192 33.84741211 42.00805664 C34.64980057 44.18893399 35.45189461 46.36991968 36.25366211 48.55102539 C36.82543182 50.0962085 36.82543182 50.0962085 37.40875244 51.67260742 C37.75621521 52.62119629 38.10367798 53.56978516 38.46166992 54.54711914 C38.76937317 55.38299561 39.07707642 56.21887207 39.394104 57.08007812 C40.05053711 59.11352539 40.05053711 59.11352539 40.05053711 61.11352539 C41.04053711 61.60852539 41.04053711 61.60852539 42.05053711 62.11352539 C49.9388379 41.5254364 57.56324584 20.85057817 65.05053711 0.11352539 C71.98053711 0.11352539 78.91053711 0.11352539 86.05053711 0.11352539 C86.76676504 11.51283074 87.28548911 22.88812067 87.58569336 34.30493164 C87.6288738 35.8724785 87.67228989 37.44001889 87.71592712 39.0075531 C87.82839019 43.06954967 87.9377225 47.13162423 88.04632568 51.19372559 C88.15840953 55.36431134 88.27356078 59.5348124 88.38842773 63.70532227 C88.61207532 71.84131164 88.83240425 79.9773863 89.05053711 88.11352539 C86.08012262 89.59873264 83.35289264 89.28410759 80.05053711 89.30102539 C78.16334961 89.32229492 78.16334961 89.32229492 76.23803711 89.34399414 C73.05053711 89.11352539 73.05053711 89.11352539 71.05053711 87.11352539 C71.05053711 86.45352539 71.05053711 85.79352539 71.05053711 85.11352539 C71.71053711 85.11352539 72.37053711 85.11352539 73.05053711 85.11352539 C72.98415039 84.48583252 72.91776367 83.85813965 72.84936523 83.21142578 C71.79106446 72.08671477 71.70808788 60.93581865 71.49829102 49.77050781 C71.44664497 47.0917836 71.38945213 44.41321947 71.33178711 41.73461914 C71.31821167 40.91279648 71.30463623 40.09097382 71.29064941 39.24424744 C71.21868971 35.96481383 71.09440764 33.24513699 70.05053711 30.11352539 C69.68135666 31.11164497 69.68135666 31.11164497 69.30471802 32.12992859 C66.98084639 38.41240942 64.65634185 44.69465566 62.33113289 50.97664165 C61.13585386 54.20597907 59.94081647 57.43540547 58.74633789 60.66503906 C57.37190159 64.38120975 55.9964024 68.09698657 54.62084961 71.81274414 C54.19369659 72.9681218 53.76654358 74.12349945 53.32644653 75.31388855 C52.92618256 76.3946315 52.52591858 77.47537445 52.11352539 78.58886719 C51.76266876 79.53706833 51.41181213 80.48526947 51.05032349 81.46220398 C50.08325801 84.02675322 49.07775441 86.57254544 48.05053711 89.11352539 C46.09227838 89.14047391 44.13391485 89.15989757 42.17553711 89.17602539 C40.5397168 89.19342773 40.5397168 89.19342773 38.87084961 89.21118164 C36.05053711 89.11352539 36.05053711 89.11352539 34.05053711 88.11352539 C33.13789839 85.98779308 32.32098176 83.82078381 31.54663086 81.64086914 C31.18744316 80.64047607 31.18744316 80.64047607 30.82099915 79.61987305 C30.03693349 77.43249074 29.26263154 75.24177741 28.48803711 73.05102539 C27.68214128 70.79690321 26.87358336 68.54374818 26.06478882 66.29066467 C25.51991381 64.77250421 24.97583032 63.25405945 24.43252563 61.7353363 C21.95441455 54.81545215 19.39379342 47.92865353 16.80053711 41.05102539 C16.41824951 40.03580811 16.03596191 39.02059082 15.64208984 37.97460938 C14.77973174 35.68701256 13.91604167 33.39993318 13.05053711 31.11352539 C12.22482161 36.9507824 11.86595533 42.65605888 11.76928711 48.54711914 C11.75087769 49.42449234 11.73246826 50.30186554 11.71350098 51.20582581 C11.6552503 53.9874967 11.60223534 56.7692255 11.55053711 59.55102539 C11.48228583 63.21650199 11.40861037 66.88181328 11.33178711 70.54711914 C11.31821167 71.37239609 11.30463623 72.19767303 11.29064941 73.04795837 C11.17677968 78.45858838 10.71464486 83.74184817 10.05053711 89.11352539 C5.10053711 89.11352539 0.15053711 89.11352539 -4.94946289 89.11352539 C-5.25446287 69.49186003 -4.74738795 49.91658936 -4.0797348 30.30651093 C-4.01175311 28.29481774 -3.94564724 26.28307005 -3.87994385 24.27130127 C-3.75383293 20.46197703 -3.62057991 16.65297819 -3.48461914 12.84399414 C-3.4460228 11.6755043 -3.40742645 10.50701447 -3.36766052 9.30311584 C-3.32770462 8.23790207 -3.28774872 7.17268829 -3.24658203 6.07519531 C-3.21327286 5.1375383 -3.17996368 4.19988129 -3.14564514 3.23381042 C-2.89186066 0.49097598 -2.75604113 0.16049582 0 0 Z"/>
<path transform="translate(180.640625,456.90234375)" fill="#207580" d="M0 0 C1.60488281 0.00483398 1.60488281 0.00483398 3.2421875 0.00976562 C4.35335937 0.01814453 5.46453125 0.02652344 6.609375 0.03515625 C8.29933594 0.04192383 8.29933594 0.04192383 10.0234375 0.04882812 C12.80213717 0.06060228 15.58072909 0.07704785 18.359375 0.09765625 C20.11960877 5.37145469 20.59224043 9.81336107 20.421875 15.34765625 C20.23540324 20.79326951 20.23540324 20.79326951 21.359375 26.09765625 C22.04563965 26.08718262 22.7319043 26.07670898 23.43896484 26.06591797 C26.53739789 26.02443751 29.63577261 25.99835556 32.734375 25.97265625 C33.81460938 25.95589844 34.89484375 25.93914062 36.0078125 25.921875 C37.0390625 25.91542969 38.0703125 25.90898437 39.1328125 25.90234375 C40.56246338 25.8866333 40.56246338 25.8866333 42.02099609 25.87060547 C44.359375 26.09765625 44.359375 26.09765625 46.359375 28.09765625 C46.81982989 32.58023577 46.6833752 37.0941766 46.671875 41.59765625 C46.68798828 42.85964844 46.70410156 44.12164062 46.72070312 45.421875 C46.72134766 46.62457031 46.72199219 47.82726562 46.72265625 49.06640625 C46.72563721 50.17435547 46.72861816 51.28230469 46.73168945 52.42382812 C46.60882568 53.30619141 46.48596191 54.18855469 46.359375 55.09765625 C43.00817981 57.33178638 41.9415995 57.33613387 38.03515625 57.29296875 C36.49311523 57.28330078 36.49311523 57.28330078 34.91992188 57.2734375 C33.84806641 57.25667969 32.77621094 57.23992188 31.671875 57.22265625 C30.04668945 57.20912109 30.04668945 57.20912109 28.38867188 57.1953125 C25.7120179 57.17172965 23.03580703 57.13881751 20.359375 57.09765625 C20.36461182 57.7431543 20.36984863 58.38865234 20.37524414 59.05371094 C20.39606157 61.9850161 20.40905034 64.91630568 20.421875 67.84765625 C20.43025391 68.8634375 20.43863281 69.87921875 20.44726562 70.92578125 C20.45048828 71.90546875 20.45371094 72.88515625 20.45703125 73.89453125 C20.46226807 74.79526367 20.46750488 75.69599609 20.47290039 76.62402344 C20.36699812 78.93155429 20.01070313 80.8890003 19.359375 83.09765625 C16.83870187 83.26711327 14.31788116 83.43329109 11.796875 83.59765625 C10.74016602 83.66919922 10.74016602 83.66919922 9.66210938 83.7421875 C6.24181617 83.96285158 2.88875202 84.0938875 -0.54296875 84.06640625 C-3.55148921 83.87051832 -3.55148921 83.87051832 -5.640625 85.09765625 C-7.290625 84.43765625 -8.940625 83.77765625 -10.640625 83.09765625 C-10.640625 74.51765625 -10.640625 65.93765625 -10.640625 57.09765625 C-17.7460739 57.21617562 -17.7460739 57.21617562 -24.85083008 57.36791992 C-26.17957153 57.37915894 -26.17957153 57.37915894 -27.53515625 57.390625 C-28.44112549 57.40633545 -29.34709473 57.4220459 -30.28051758 57.43823242 C-32.640625 57.09765625 -32.640625 57.09765625 -34.44360352 55.87817383 C-36.01141404 53.54612362 -35.97147932 52.11225514 -35.8984375 49.31640625 C-35.88425781 48.39214844 -35.87007812 47.46789062 -35.85546875 46.515625 C-35.82582031 45.55269531 -35.79617187 44.58976562 -35.765625 43.59765625 C-35.72224526 41.69149961 -35.68300149 39.78524312 -35.6484375 37.87890625 C-35.62410645 37.03392578 -35.59977539 36.18894531 -35.57470703 35.31835938 C-35.53916974 32.92212066 -35.53916974 32.92212066 -36.640625 30.09765625 C-35.3125 28.11328125 -35.3125 28.11328125 -32.640625 26.09765625 C-29.04994246 25.58208671 -25.50879329 25.72239343 -21.890625 25.84765625 C-20.41529297 25.87472656 -20.41529297 25.87472656 -18.91015625 25.90234375 C-16.48598717 25.94941499 -14.06380441 26.01514883 -11.640625 26.09765625 C-11.61556885 25.4113916 -11.5905127 24.72512695 -11.56469727 24.01806641 C-11.44891073 20.91939808 -11.32610615 17.82104702 -11.203125 14.72265625 C-11.16380859 13.64242188 -11.12449219 12.5621875 -11.08398438 11.44921875 C-11.04208984 10.41796875 -11.00019531 9.38671875 -10.95703125 8.32421875 C-10.92037354 7.37111816 -10.88371582 6.41801758 -10.84594727 5.43603516 C-10.640625 3.09765625 -10.640625 3.09765625 -9.640625 1.09765625 C-6.44900678 -0.0575054 -3.36643549 -0.01790657 0 0 Z"/>
<path transform="translate(339,450)" fill="#030506" d="M0 0 C5.71127914 0.06909575 11.42184144 0.15716881 17.13256836 0.26245117 C19.07324235 0.29560159 21.01401046 0.323664 22.95483398 0.34643555 C25.75284747 0.38016384 28.5500061 0.43248819 31.34765625 0.48828125 C32.63870018 0.49786613 32.63870018 0.49786613 33.95582581 0.50764465 C42.19619769 0.70648268 48.03371741 3.03371741 54 9 C58.8357466 15.30293907 58.82154481 22.33558809 58 30 C56.00543466 35.77374178 52.0802182 40.61318787 47 44 C48.051875 44.515625 49.10375 45.03125 50.1875 45.5625 C55.50275788 48.6182353 58.06094521 52.73773164 60.375 58.3125 C61.69786049 66.1173769 60.63671258 73.46645045 56 80 C50.86322021 85.74954286 44.53535746 88.84307948 36.84375 89.51171875 C35.39649439 89.58484255 33.94841764 89.64297765 32.5 89.6875 C31.7275293 89.72020996 30.95505859 89.75291992 30.15917969 89.78662109 C9.24337304 90.59304448 9.24337304 90.59304448 1 89 C0.505 89.99 0.505 89.99 0 91 C-1.0718865 87.7843405 -1.12055407 85.48769269 -1.11352539 82.10742188 C-1.11344986 80.89606567 -1.11337433 79.68470947 -1.11329651 78.43664551 C-1.10813522 77.12723999 -1.10297394 75.81783447 -1.09765625 74.46875 C-1.09579021 73.11259005 -1.09436719 71.75642942 -1.09336853 70.40026855 C-1.0895522 66.83068987 -1.07973312 63.26115194 -1.06866455 59.69158936 C-1.05845326 56.06132556 -1.05386572 52.43105527 -1.04882812 48.80078125 C-1.03925543 42.41929737 -1.0247523 36.03783854 -1.00672913 29.65637207 C-1.00195289 27.77091943 -1 25.88545869 -1 24 C-0.93331344 22.1521084 -0.85944853 20.30447149 -0.78125 18.45703125 C-0.73613281 17.38388672 -0.69101562 16.31074219 -0.64453125 15.20507812 C-0.59683594 14.08552734 -0.54914063 12.96597656 -0.5 11.8125 C-0.45230469 10.68134766 -0.40460938 9.55019531 -0.35546875 8.38476562 C-0.23753854 5.58981962 -0.11902619 2.79489952 0 0 Z M16 14 C16 21.92 16 29.84 16 38 C21.89473163 40.94736582 30.99448757 38.93342936 37 37 C40.0236794 34.71380338 40.80331196 33.59006411 42 30 C42.34547151 24.64519163 42.46362011 21.3615957 39 17 C33.88731328 13.59154218 28.63415271 13.88080988 22.625 13.9375 C20.43875 13.958125 18.2525 13.97875 16 14 Z M16 51 C16 58.92 16 66.84 16 75 C21.32775148 77.66387574 29.84362105 76.47161308 35.5625 75.25 C39.08688418 73.96840575 40.75319259 72.96578578 43 70 C44.50650776 65.48047673 44.74563919 61.64040622 42.75 57.25 C39.26026193 52.76319391 36.5880808 51.70908127 31 51 C28.36175573 50.93337767 25.76028875 50.90456618 23.125 50.9375 C19.598125 50.9684375 19.598125 50.9684375 16 51 Z"/>
<path transform="translate(837.3125,460.1875)" fill="#016FAE" d="M0 0 C10.03373608 10.50042148 14.35040524 23.15569666 14.15820312 37.4987793 C13.63992746 49.70169022 9.48019487 60.35509354 0.55078125 68.84375 C-7.49495669 75.47130377 -15.74436431 78.74772759 -26.13671875 79.12890625 C-27.24853516 79.17080078 -28.36035156 79.21269531 -29.50585938 79.25585938 C-30.65892578 79.29517578 -31.81199219 79.33449219 -33 79.375 C-34.7005957 79.43977539 -34.7005957 79.43977539 -36.43554688 79.50585938 C-43.06434556 79.74655927 -49.67948664 79.87183265 -56.3125 79.8125 C-57.07455421 75.10404004 -57.42245242 70.6227893 -57.375 65.85546875 C-57.36726562 64.57865234 -57.35953125 63.30183594 -57.3515625 61.98632812 C-57.33190763 59.98054814 -57.31224522 57.97476817 -57.29199219 55.96899414 C-57.27398514 54.01451851 -57.26189968 52.05999111 -57.25 50.10546875 C-57.23839844 48.9455542 -57.22679687 47.78563965 -57.21484375 46.59057617 C-57.118399 43.85443898 -57.118399 43.85443898 -58.3125 41.8125 C-57.9825 41.1525 -57.6525 40.4925 -57.3125 39.8125 C-57.22776777 38.31128173 -57.2052935 36.80631166 -57.21484375 35.30273438 C-57.21814697 34.36836548 -57.2214502 33.43399658 -57.22485352 32.47131348 C-57.23315186 31.45984253 -57.2414502 30.44837158 -57.25 29.40625 C-57.25378662 28.37060913 -57.25757324 27.33496826 -57.26147461 26.26794434 C-57.27372516 22.94942141 -57.292356 19.63098386 -57.3125 16.3125 C-57.33899406 11.94791904 -57.35904157 7.58338076 -57.375 3.21875 C-57.38744751 1.70154358 -57.38744751 1.70154358 -57.40014648 0.15368652 C-57.40344971 -0.78068237 -57.40675293 -1.71505127 -57.41015625 -2.67773438 C-57.41539307 -3.50221069 -57.42062988 -4.32668701 -57.42602539 -5.17614746 C-57.3125 -7.1875 -57.3125 -7.1875 -56.3125 -9.1875 C-53.33347935 -9.35721023 -50.35432744 -9.52333751 -47.375 -9.6875 C-46.54419922 -9.73519531 -45.71339844 -9.78289062 -44.85742188 -9.83203125 C-28.01153844 -10.74970583 -14.47256861 -9.55735663 0 0 Z M-41.3125 3.8125 C-41.3125 23.9425 -41.3125 44.0725 -41.3125 64.8125 C-22.96996182 65.36454849 -22.96996182 65.36454849 -9.3125 56.8125 C-2.98970377 47.52414447 -1.40626817 38.1797982 -2.875 27.1875 C-4.61201078 19.17409027 -8.52563211 12.33707859 -15.40625 7.75 C-24.32931614 3.36160681 -30.2972814 4.42445659 -41.3125 3.8125 Z"/>
<path transform="translate(551.37890625,445.90234375)" fill="#040707" d="M0 0 C1.39456452 0.00667256 2.78911118 0.01863093 4.18359375 0.03515625 C4.89451172 0.03966797 5.60542969 0.04417969 6.33789062 0.04882812 C8.09899388 0.06064761 9.86005411 0.07858362 11.62109375 0.09765625 C12.87384098 2.6031507 12.74138999 4.29501257 12.73461914 7.09814453 C12.73454361 8.13907257 12.73446808 9.18000061 12.73439026 10.25247192 C12.72922897 11.37958588 12.72406769 12.50669983 12.71875 13.66796875 C12.71733505 14.81933319 12.7159201 15.97069763 12.71446228 17.1569519 C12.70885091 20.84554611 12.69629645 24.5340803 12.68359375 28.22265625 C12.67858022 30.71874913 12.67401706 33.21484295 12.66992188 35.7109375 C12.65887778 41.83986434 12.64212855 47.96875601 12.62109375 54.09765625 C13.93663396 52.80908612 15.24843472 51.51669734 16.55859375 50.22265625 C17.28949219 49.50335938 18.02039063 48.7840625 18.7734375 48.04296875 C20.67777374 46.22738433 20.67777374 46.22738433 21.62109375 44.09765625 C22.28109375 44.09765625 22.94109375 44.09765625 23.62109375 44.09765625 C23.86730469 43.52273438 24.11351562 42.9478125 24.3671875 42.35546875 C25.81902428 39.74125798 27.52396924 38.03429417 29.68359375 35.97265625 C32.53681308 33.31860625 32.53681308 33.31860625 34.62109375 30.09765625 C41.22109375 30.09765625 47.82109375 30.09765625 54.62109375 30.09765625 C53.51076119 33.42865393 52.70076072 34.1017651 50.05859375 36.26953125 C45.61715787 40.04078618 41.60550865 44.10183838 37.62109375 48.34765625 C36.94175781 49.0540625 36.26242187 49.76046875 35.5625 50.48828125 C34.60150391 51.50921875 34.60150391 51.50921875 33.62109375 52.55078125 C33.04359375 53.16083008 32.46609375 53.77087891 31.87109375 54.39941406 C30.32469964 56.14888896 30.32469964 56.14888896 30.62109375 59.09765625 C31.97503807 61.38019071 33.36781128 63.54169912 34.87109375 65.72265625 C35.3105835 66.37202148 35.75007324 67.02138672 36.20288086 67.69042969 C40.2979611 73.70903252 44.5125463 79.64644146 48.77246094 85.54931641 C49.50384277 86.570979 49.50384277 86.570979 50.25 87.61328125 C50.6838501 88.21430664 51.1177002 88.81533203 51.56469727 89.43457031 C52.62109375 91.09765625 52.62109375 91.09765625 53.62109375 94.09765625 C50.87003953 94.20577628 48.12324288 94.2850057 45.37109375 94.34765625 C44.59378906 94.38117188 43.81648437 94.4146875 43.015625 94.44921875 C41.88447266 94.46855469 41.88447266 94.46855469 40.73046875 94.48828125 C39.6935791 94.51970215 39.6935791 94.51970215 38.63574219 94.55175781 C33.88713386 93.48142196 31.42243379 88.51352872 28.94921875 84.67578125 C28.28535156 83.65097656 27.62148438 82.62617187 26.9375 81.5703125 C26.25558594 80.50683594 25.57367187 79.44335938 24.87109375 78.34765625 C23.82501953 76.72923828 23.82501953 76.72923828 22.7578125 75.078125 C21.04112748 72.42079065 19.32907808 69.76058795 17.62109375 67.09765625 C14.93054095 68.31773569 14.93054095 68.31773569 12.62109375 70.09765625 C12.53395544 71.80537983 12.51409368 73.51664274 12.5234375 75.2265625 C12.52827148 76.77827148 12.52827148 76.77827148 12.53320312 78.36132812 C12.54158203 79.44994141 12.54996094 80.53855469 12.55859375 81.66015625 C12.56310547 82.75263672 12.56761719 83.84511719 12.57226562 84.97070312 C12.58409549 87.6797412 12.60057832 90.38867224 12.62109375 93.09765625 C8.88386189 94.14079569 5.50332714 94.16824231 1.62109375 94.09765625 C0.63109375 94.09765625 -0.35890625 94.09765625 -1.37890625 94.09765625 C-3.39042366 93.46659196 -5.39254327 92.80391864 -7.37890625 92.09765625 C-6.38890625 91.10765625 -6.38890625 91.10765625 -5.37890625 90.09765625 C-5.37890625 90.75765625 -5.37890625 91.41765625 -5.37890625 92.09765625 C-4.71890625 92.09765625 -4.05890625 92.09765625 -3.37890625 92.09765625 C-3.44955292 91.00352921 -3.52019958 89.90940216 -3.59298706 88.78211975 C-4.26021049 77.97883354 -4.52810942 67.22817358 -4.51171875 56.40625 C-4.51239491 54.79769374 -4.51336751 53.18913758 -4.51461792 51.58058167 C-4.51607303 48.25561523 -4.51400722 44.9306761 -4.50927734 41.60571289 C-4.50350144 37.33752822 -4.50692153 33.06940536 -4.51284981 28.8012228 C-4.51644789 25.50111923 -4.5153217 22.20103059 -4.51272202 18.90092659 C-4.51205472 17.32478897 -4.51287431 15.74865 -4.51520157 14.17251396 C-4.51772413 11.99054162 -4.51389688 9.80867349 -4.50830078 7.62670898 C-4.50710739 5.76622169 -4.50710739 5.76622169 -4.50588989 3.8681488 C-4.31979242 -0.19207221 -4.162159 0.12029361 0 0 Z"/>
<path transform="translate(772,477)" fill="#050708" d="M0 0 C-0.43530029 1.11012451 -0.43530029 1.11012451 -0.87939453 2.24267578 C-2.29847856 5.86860961 -3.71283943 9.49636579 -5.125 13.125 C-5.38888519 13.80239227 -5.65277039 14.47978455 -5.9246521 15.17770386 C-9.26375276 23.76176398 -12.52387759 32.3698284 -15.66796875 41.02734375 C-15.97250977 41.86390503 -16.27705078 42.70046631 -16.59082031 43.56237793 C-18.07641478 47.64657803 -19.55247753 51.73384286 -21.01416016 55.82666016 C-30.71954079 82.75353707 -30.71954079 82.75353707 -40 89 C-43.46712111 90.15570704 -46.5414956 90.32835293 -50.1875 90.5625 C-51.45980469 90.64628906 -52.73210938 90.73007812 -54.04296875 90.81640625 C-55.01878906 90.87699219 -55.99460937 90.93757812 -57 91 C-57.98783094 88.03650719 -58.13410525 86.0287337 -58.125 82.9375 C-58.12757813 82.05964844 -58.13015625 81.18179688 -58.1328125 80.27734375 C-58 78 -58 78 -57 76 C-57.66 75.67 -58.32 75.34 -59 75 C-58.18015625 75.04640625 -57.3603125 75.0928125 -56.515625 75.140625 C-55.43796875 75.17671875 -54.3603125 75.2128125 -53.25 75.25 C-52.18265625 75.29640625 -51.1153125 75.3428125 -50.015625 75.390625 C-46.94415747 75.23739625 -46.94415747 75.23739625 -44.71875 73.34375 C-42.75064959 70.65997671 -42.01862429 68.47822203 -41.25 65.25 C-41.00765625 64.26515625 -40.7653125 63.2803125 -40.515625 62.265625 C-40.34546875 61.51796875 -40.1753125 60.7703125 -40 60 C-41.485 59.505 -41.485 59.505 -43 59 C-42.34 59 -41.68 59 -41 59 C-41.34786708 57.02463255 -41.34786708 57.02463255 -42 55 C-42.66 54.67 -43.32 54.34 -44 54 C-44.78125 52.21484375 -44.78125 52.21484375 -45.5 49.9375 C-45.75394531 49.133125 -46.00789062 48.32875 -46.26953125 47.5 C-47.28607316 44.0209261 -48.16627082 40.52731576 -49 37 C-49.99 37 -50.98 37 -52 37 C-51.67 36.01 -51.34 35.02 -51 34 C-51.82657433 31.44477712 -52.72248893 29.03372814 -53.74609375 26.55859375 C-54.03605728 25.83511246 -54.32602081 25.11163116 -54.62477112 24.3662262 C-55.55349772 22.05296611 -56.49482158 19.74510572 -57.4375 17.4375 C-58.37451715 15.12555116 -59.30884441 12.81257219 -60.23951721 10.49806213 C-60.81960713 9.05736074 -61.4037602 7.61828758 -61.99229431 6.18101501 C-64 1.22189103 -64 1.22189103 -64 -1 C-58.06 -1 -52.12 -1 -46 -1 C-41.38 12.53 -36.76 26.06 -32 40 C-30.00263519 36.00527037 -28.59402315 31.99898686 -27.21484375 27.76953125 C-26.82311729 26.58299202 -26.82311729 26.58299202 -26.42347717 25.3724823 C-25.59192039 22.85343168 -24.76424825 20.33313256 -23.9375 17.8125 C-22.84584528 14.48454596 -21.75031596 11.15790557 -20.65234375 7.83203125 C-20.27576881 6.67741142 -20.27576881 6.67741142 -19.8915863 5.49946594 C-18.1127869 0.1127869 -18.1127869 0.1127869 -17 -1 C-14.51299961 -1.29068836 -12.05789507 -1.51468871 -9.5625 -1.6875 C-8.52125977 -1.77741211 -8.52125977 -1.77741211 -7.45898438 -1.86914062 C-2.23809053 -2.23809053 -2.23809053 -2.23809053 0 0 Z"/>
<path transform="translate(456.1875,479.75)" fill="#040707" d="M0 0 C7.82993554 6.26394843 11.45573167 13.33836654 13.6875 23.0625 C14.5533807 33.47418742 11.76691139 43.29822253 5.4375 51.5 C-1.01153238 58.25612916 -8.86076418 61.26037307 -18.125 61.6875 C-27.87520769 61.32014524 -35.61206125 57.30846861 -42.1875 50.25 C-47.53710384 44.03289284 -49.87782759 34.55655174 -49.46875 26.375 C-48.31376681 17.64846035 -46.32777761 10.70812728 -40.1875 4.25 C-39.64996094 3.68410156 -39.11242187 3.11820312 -38.55859375 2.53515625 C-27.79521392 -7.67881672 -12.36019598 -6.78598995 0 0 Z M-28.4375 12.9375 C-32.08949174 17.76334623 -33.74052474 23.0767468 -33.4765625 29.171875 C-32.6193758 35.33435236 -30.64224433 40.79525567 -26.1875 45.25 C-21.94222263 47.77929157 -18.01750722 47.9376052 -13.1875 47.25 C-8.33108852 44.73186071 -5.04999672 41.92615805 -3.3515625 36.65625 C-1.93407407 29.01413848 -1.96551199 22.44647981 -5.1875 15.25 C-7.18022564 12.64891821 -9.1596003 10.57185729 -12.1875 9.25 C-14.367327 9.5374461 -14.367327 9.5374461 -16.1875 10.25 C-16.1875 9.59 -16.1875 8.93 -16.1875 8.25 C-20.91429797 8.25 -24.68414604 10.12248453 -28.4375 12.9375 Z"/>
<path transform="translate(906,479)" fill="#0270AE" d="M0 0 C8.47526768 6.03278896 12.76050833 12.63655747 14.68359375 22.7890625 C16.14706193 33.01527227 13.80800589 42.60759187 7.73046875 50.99609375 C2.20713608 57.39218779 -4.62774897 61.44139623 -13.04296875 62.31640625 C-23.0141052 62.67878049 -30.17017724 60.6246742 -37.875 54.25 C-41.7486178 50.56084019 -44.21106669 47.03075721 -46 42 C-46.22300781 41.37480469 -46.44601562 40.74960937 -46.67578125 40.10546875 C-49.59902807 30.34142664 -48.43086717 21.08258754 -44 12 C-39.72360791 4.48706801 -33.60973773 -0.08652396 -25.6875 -3.375 C-16.48283688 -4.93511239 -8.2116102 -4.78450611 0 0 Z M-27.8125 14.25 C-32.20615989 19.77345815 -32.70788633 26.18373966 -32 33 C-30.92979553 38.88612458 -28.92634439 43.28920522 -24.09375 46.96484375 C-20.10851587 48.9351554 -16.29895509 48.81715675 -12 48 C-6.54781149 45.47583865 -4.48873365 42.25399327 -2 37 C0.22072478 29.78264447 -0.52475207 22.62653207 -4 16 C-6.95433153 12.49173131 -9.73954259 10.31511435 -14.25 9.1875 C-19.95517055 8.90224147 -23.41306202 10.73044962 -27.8125 14.25 Z"/>
<path transform="translate(526.1875,480.625)" fill="#040607" d="M0 0 C5.94331632 4.76888854 9.88116312 11.02714103 11.8125 18.375 C12.81530461 27.61464961 13.11070255 37.41944352 7.8125 45.375 C7.38839844 46.07882812 6.96429687 46.78265625 6.52734375 47.5078125 C2.17739581 54.07514337 -3.41107884 56.93309374 -10.625 59.6875 C-20.42554922 61.57883406 -28.87831073 60.28691528 -37.44921875 54.97265625 C-43.79557066 50.0285459 -47.94125566 42.79001943 -49.7421875 34.96484375 C-49.9710436 33.1097223 -50.0875085 31.24150808 -50.1875 29.375 C-50.48919066 28.03415264 -50.80267681 26.6943938 -51.1875 25.375 C-50.5275 25.375 -49.8675 25.375 -49.1875 25.375 C-49.290625 24.4675 -49.39375 23.56 -49.5 22.625 C-49.47013741 15.27880398 -45.84825024 7.66763328 -40.875 2.375 C-29.38818049 -7.88555774 -12.64334599 -8.62046318 0 0 Z M-30 12.9375 C-33.87491884 18.10405846 -34.48342895 24.71120118 -34.125 31 C-33.38354136 35.86258925 -31.40355239 39.67219373 -28.1875 43.375 C-24.30188765 46.13810212 -20.82614642 46.93335403 -16.140625 46.71875 C-11.205387 45.85014811 -8.67466287 43.05966133 -5.875 39.125 C-2.17020094 31.8084094 -2.7291536 24.02318879 -5.1875 16.375 C-7.18289669 12.59992519 -9.42367796 10.17353034 -13.3359375 8.40234375 C-20.20864637 6.443739 -24.72087295 8.12762868 -30 12.9375 Z"/>
<path transform="translate(976,479)" fill="#0370AC" d="M0 0 C1.41796875 1.8125 1.41796875 1.8125 2 4 C1.3203125 6.578125 1.3203125 6.578125 0.125 9.25 C-0.26429688 10.14203125 -0.65359375 11.0340625 -1.0546875 11.953125 C-1.36664062 12.62859375 -1.67859375 13.3040625 -2 14 C-2.72703125 13.69707031 -3.4540625 13.39414062 -4.203125 13.08203125 C-11.12635613 10.40363038 -17.02793844 9.11341705 -24.08984375 11.953125 C-27.93944409 14.06292641 -29.48265934 16.86185055 -31.25 20.75 C-32.86967813 27.76860522 -32.7283191 34.66185753 -29 41 C-25.305519 45.06796678 -21.82657043 46.87616472 -16.3125 47.25 C-11.71184204 47.2160468 -8.23373154 45.72219588 -4 44 C-3.01 44 -2.02 44 -1 44 C0.32 47.63 1.64 51.26 3 55 C-4.02684937 61.02301375 -11.17948029 62.41036496 -20.28515625 62.2734375 C-29.0557351 61.39006985 -36.17085076 57.53361988 -42 51 C-47.93226619 43.12064031 -50.12262942 33.68267878 -49 24 C-47.27640558 15.31021146 -44.54201025 9.02043768 -38 3 C-37.21625 2.236875 -36.4325 1.47375 -35.625 0.6875 C-25.17861971 -6.02803018 -10.76421948 -6.35265412 0 0 Z"/>
<path transform="translate(84,440)" fill="#1B676E" d="M0 0 C3.96 0 7.92 0 12 0 C12.33 36.96 12.66 73.92 13 112 C12.01 112 11.02 112 10 112 C8.75781912 105.25435339 8.85621355 98.56508135 8.8671875 91.72265625 C8.86520859 89.76639565 8.86520859 89.76639565 8.8631897 87.77061462 C8.86050199 84.25861956 8.86493256 80.74666901 8.87142944 77.23468018 C8.87499953 75.06278349 8.87661811 72.8908934 8.87768555 70.71899414 C8.89189762 47.46880159 9.19693555 24.23760974 10 1 C6.7 1 3.4 1 0 1 C0 0.67 0 0.34 0 0 Z"/>
<path transform="translate(267,420)" fill="#1A666F" d="M0 0 C0.33 0 0.66 0 1 0 C1 40.26 1 80.52 1 122 C0.67 122 0.34 122 0 122 C-0.30911503 108.45592798 -0.60545465 94.91164052 -0.8859272 81.36694336 C-1.01658334 75.07618002 -1.15147663 68.7855696 -1.29638672 62.49511719 C-1.43632737 56.41337429 -1.56470236 50.33148293 -1.68539047 44.24932861 C-1.73317849 41.94028005 -1.78498564 39.63131072 -1.84106827 37.32244873 C-2.14546457 24.67597595 -2.12012183 12.50110289 0 0 Z"/>
<path transform="translate(808,451)" fill="#0B5783" d="M0 0 C0 0.33 0 0.66 0 1 C-8.58 1 -17.16 1 -26 1 C-26 29.38 -26 57.76 -26 87 C-13.79 86.67 -1.58 86.34 11 86 C8.38166888 88.61833112 7.12160961 88.3009978 3.46875 88.4140625 C2.34726562 88.45273437 1.22578125 88.49140625 0.0703125 88.53125 C-1.10789062 88.5621875 -2.28609375 88.593125 -3.5 88.625 C-5.22089844 88.68300781 -5.22089844 88.68300781 -6.9765625 88.7421875 C-13.65261995 88.95509138 -20.32079479 89.05140779 -27 89 C-27.76205421 84.29154004 -28.10995242 79.8102893 -28.0625 75.04296875 C-28.05476562 73.76615234 -28.04703125 72.48933594 -28.0390625 71.17382812 C-28.01940763 69.16804814 -27.99974522 67.16226817 -27.97949219 65.15649414 C-27.96148514 63.20201851 -27.94939968 61.24749111 -27.9375 59.29296875 C-27.92589844 58.1330542 -27.91429687 56.97313965 -27.90234375 55.77807617 C-27.805899 53.04193898 -27.805899 53.04193898 -29 51 C-28.67 50.34 -28.34 49.68 -28 49 C-27.91526777 47.49878173 -27.8927935 45.99381166 -27.90234375 44.49023438 C-27.90564697 43.55586548 -27.9089502 42.62149658 -27.91235352 41.65881348 C-27.92065186 40.64734253 -27.9289502 39.63587158 -27.9375 38.59375 C-27.94128662 37.55810913 -27.94507324 36.52246826 -27.94897461 35.45544434 C-27.96122516 32.13692141 -27.979856 28.81848386 -28 25.5 C-28.02649406 21.13541904 -28.04654157 16.77088076 -28.0625 12.40625 C-28.07494751 10.88904358 -28.07494751 10.88904358 -28.08764648 9.34118652 C-28.09094971 8.40681763 -28.09425293 7.47244873 -28.09765625 6.50976562 C-28.10289307 5.68528931 -28.10812988 4.86081299 -28.11352539 4.01135254 C-28 2 -28 2 -27 0 C-24.0003508 -0.19654959 -21.00064899 -0.38246106 -18 -0.5625 C-17.16082031 -0.61857422 -16.32164062 -0.67464844 -15.45703125 -0.73242188 C-10.14062774 -1.0415151 -5.26352696 -0.82242609 0 0 Z"/>
<path transform="translate(976,479)" fill="#146B99" d="M0 0 C1.30078125 2.140625 1.30078125 2.140625 2 4 C1.01 3.67 0.02 3.34 -1 3 C-1 2.34 -1 1.68 -1 1 C-10.45337179 -2.11773454 -22.50927411 -3.21326967 -31.75 1.0625 C-39.36905553 5.74913553 -43.8314272 12.34841635 -46 21 C-46.67892412 25.97708485 -46.86618217 30.98183143 -47 36 C-47.66 35.67 -48.32 35.34 -49 35 C-49.73749869 24.77744876 -48.40606457 14.47644703 -41.5625 6.4375 C-40.39934183 5.2669645 -39.2142524 4.11744413 -38 3 C-37.21625 2.236875 -36.4325 1.47375 -35.625 0.6875 C-25.17861971 -6.02803018 -10.76421948 -6.35265412 0 0 Z"/>
<path transform="translate(199,514)" fill="#287078" d="M0 0 C1.78259577 3.56519155 2.25170191 4.5304011 2.23046875 8.1875 C2.22853516 8.96867188 2.22660156 9.74984375 2.22460938 10.5546875 C2.20624023 11.76511719 2.20624023 11.76511719 2.1875 13 C2.18685547 13.80695312 2.18621094 14.61390625 2.18554688 15.4453125 C2.15801978 19.15229441 2.0100235 22.41328312 1 26 C-1.52067313 26.16945702 -4.04149384 26.33563484 -6.5625 26.5 C-7.26697266 26.54769531 -7.97144531 26.59539063 -8.69726562 26.64453125 C-12.11755883 26.86519533 -15.47062298 26.99623125 -18.90234375 26.96875 C-21.91086421 26.77286207 -21.91086421 26.77286207 -24 28 C-26.475 27.01 -26.475 27.01 -29 26 C-29 17.75 -29 9.5 -29 1 C-28.67 1 -28.34 1 -28 1 C-27.67 8.59 -27.34 16.18 -27 24 C-18.09 24 -9.18 24 0 24 C0 16.08 0 8.16 0 0 Z"/>
<path transform="translate(809,451)" fill="#0F6B9D" d="M0 0 C10.02255191 -0.65721652 18.6818848 2.278925 26.8671875 8.1171875 C35.18280704 15.45808241 41.32474522 26.78248859 42.14526367 37.98291016 C42.16971379 40.19709148 42.18564234 42.41067399 42.1875 44.625 C42.19974609 45.40101563 42.21199219 46.17703125 42.22460938 46.9765625 C42.22984167 48.98576362 42.12248735 50.99452914 42 53 C41.34 53.66 40.68 54.32 40 55 C39.98598145 54.13217896 39.98598145 54.13217896 39.97167969 53.24682617 C39.69184069 39.45926858 38.99617991 28.21133295 30.953125 16.55859375 C30 15 30 15 30 13 C29.1028125 12.566875 29.1028125 12.566875 28.1875 12.125 C26 11 26 11 23 9 C23 8.34 23 7.68 23 7 C15.46201031 4.27072787 7.85428897 2.57532681 0 1 C0 0.67 0 0.34 0 0 Z"/>
<path transform="translate(264.6875,564.875)" fill="#1D666D" d="M0 0 C1.56645264 -0.00688843 1.56645264 -0.00688843 3.16455078 -0.01391602 C17.69960461 0.01472787 17.69960461 0.01472787 23.3125 1.125 C23.8075 2.115 23.8075 2.115 24.3125 3.125 C6.8225 3.455 -10.6675 3.785 -28.6875 4.125 C-29.0175 3.465 -29.3475 2.805 -29.6875 2.125 C-20.52126639 -0.9304112 -9.57011156 0.02332794 0 0 Z"/>
<path transform="translate(226,485)" fill="#2D7980" d="M0 0 C0.33 0 0.66 0 1 0 C1.08674429 4.45821166 1.14030513 8.91620804 1.1875 13.375 C1.21263672 14.64601563 1.23777344 15.91703125 1.26367188 17.2265625 C1.27333984 18.43828125 1.28300781 19.65 1.29296875 20.8984375 C1.3086792 22.01911621 1.32438965 23.13979492 1.34057617 24.29443359 C1.22818604 25.18727051 1.1157959 26.08010742 1 27 C-3.48467176 29.98978117 -7.78808074 29.32924419 -13.0625 29.3125 C-14.59100586 29.33666992 -14.59100586 29.33666992 -16.15039062 29.36132812 C-17.60928711 29.36229492 -17.60928711 29.36229492 -19.09765625 29.36328125 C-19.98976807 29.36626221 -20.88187988 29.36924316 -21.80102539 29.37231445 C-22.88951782 29.1880188 -22.88951782 29.1880188 -24 29 C-24.66 28.01 -25.32 27.02 -26 26 C-18.08 26 -10.16 26 -2 26 C-2 21.05 -2 16.1 -2 11 C-1.67 11 -1.34 11 -1 11 C-0.67 7.37 -0.34 3.74 0 0 Z"/>
<path transform="translate(906,479)" fill="#0F699A" d="M0 0 C0.495 0.99 0.495 0.99 1 2 C-0.32 2 -1.64 2 -3 2 C-3 1.34 -3 0.68 -3 0 C-14.17739829 -2.09147637 -24.31933835 -2.49129638 -34 4 C-35.423125 4.928125 -35.423125 4.928125 -36.875 5.875 C-41.16313638 10.16313638 -43.30763761 15.21776184 -45 21 C-45.33 21 -45.66 21 -46 21 C-45.68577293 13.61566391 -42.41905758 8.31131417 -37.140625 3.19921875 C-26.38138735 -5.4727268 -12.13646173 -6.97146859 0 0 Z"/>
<path transform="translate(872,504)" fill="#0E6A9D" d="M0 0 C0.66 0 1.32 0 2 0 C2.09796875 0.86882812 2.1959375 1.73765625 2.296875 2.6328125 C3.61592484 12.82177614 3.61592484 12.82177614 9.828125 20.62109375 C13.6399315 23.04117953 17.64340943 22.6272939 22 22 C26.00775735 19.9219036 28.93927464 17.29616577 32 14 C31.52591957 18.26672384 29.11692878 20.2455048 26 23 C21.72846093 25.54530885 17.85581128 25.54047291 13 25 C8.27511271 23.30617248 5.77352555 21.16028832 3 17 C1.20464235 13.19305549 0.65111223 9.87520222 0.375 5.6875 C0.26285156 4.08455078 0.26285156 4.08455078 0.1484375 2.44921875 C0.09945312 1.64097656 0.05046875 0.83273437 0 0 Z"/>
<path transform="translate(896.8125,487.625)" fill="#0C6699" d="M0 0 C4.67462276 2.9383343 7.57604228 7.16875198 9.1875 12.375 C9.32460218 15.02107209 9.37812972 17.54969013 9.3125 20.1875 C9.30347656 20.88037109 9.29445313 21.57324219 9.28515625 22.28710938 C9.26176157 23.98322395 9.22589641 25.67915871 9.1875 27.375 C8.8575 27.375 8.5275 27.375 8.1875 27.375 C8.07792969 26.27800781 7.96835937 25.18101562 7.85546875 24.05078125 C7.69594334 22.59628484 7.53575187 21.14186137 7.375 19.6875 C7.30474609 18.96626953 7.23449219 18.24503906 7.16210938 17.50195312 C6.65452071 13.05547641 5.74535478 10.15221568 3.1875 6.375 C3.1875 5.715 3.1875 5.055 3.1875 4.375 C1.8675 4.375 0.5475 4.375 -0.8125 4.375 C-1.1425 3.715 -1.4725 3.055 -1.8125 2.375 C-7.5091786 0.83214955 -12.61135529 1.44074932 -17.8125 4.375 C-18.96321861 6.37922568 -18.96321861 6.37922568 -19.8125 8.375 C-20.8025 8.87 -20.8025 8.87 -21.8125 9.375 C-20.68268062 4.98125796 -18.61690843 2.76292234 -14.9453125 0.3203125 C-10.13076087 -1.81360965 -5.0124581 -1.11387958 0 0 Z"/>
<path transform="translate(862,523)" fill="#116898" d="M0 0 C2.08124619 2.00236514 3.8210107 4.07727382 5.5625 6.375 C10.18798456 11.70165826 15.42705951 14.61460417 22.4765625 15.375 C30.97988723 15.52066723 38.18599631 14.41862661 46 11 C41.91444168 15.9367163 37.13030435 17.66817974 30.94140625 18.32421875 C20.87507628 18.66806277 13.75930589 16.57461413 6 10.125 C2.71572426 7.03187258 0.79978541 4.57020236 0 0 Z"/>
<path transform="translate(812,464)" fill="#0C6597" d="M0 0 C7.16847083 0.44802943 12.17635153 3.17635153 17.25 8.25 C21.81653593 15.42598504 24.16559825 22.19378993 24.0625 30.6875 C24.05798828 31.38939453 24.05347656 32.09128906 24.04882812 32.81445312 C24.03706927 34.54300538 24.01913454 36.27151365 24 38 C23.67 38 23.34 38 23 38 C22.87939209 37.00818726 22.87939209 37.00818726 22.75634766 35.99633789 C22.38870004 33.0171335 22.00704642 30.03989063 21.625 27.0625 C21.49867188 26.02158203 21.37234375 24.98066406 21.2421875 23.90820312 C21.11328125 22.91884766 20.984375 21.92949219 20.8515625 20.91015625 C20.73635254 19.99371338 20.62114258 19.07727051 20.50244141 18.13305664 C20.33663574 17.42914795 20.17083008 16.72523926 20 16 C19.34 15.67 18.68 15.34 18 15 C17.484375 13.9275 16.96875 12.855 16.4375 11.75 C13.13623926 5.70596249 6.24132889 3.21466509 0 1 C0 0.67 0 0.34 0 0 Z"/>
<path transform="translate(975,485)" fill="#1A709D" d="M0 0 C0.93065133 2.60582371 1.14917407 3.64198224 0.0625 6.25 C-0.4634375 7.11625 -0.4634375 7.11625 -1 8 C-1.61875 7.71125 -2.2375 7.4225 -2.875 7.125 C-11.1795417 4.13536499 -16.80620513 3.46443616 -25 7 C-25.99 7.33 -26.98 7.66 -28 8 C-28 7.34 -28 6.68 -28 6 C-23.46151148 1.79769582 -18.33921687 1.72587081 -12.42578125 1.765625 C-8.3932468 2.15524186 -4.7462581 3.51212444 -1 5 C-0.67 3.35 -0.34 1.7 0 0 Z"/>
<path transform="translate(113,565)" fill="#236C73" d="M0 0 C3.20899141 0.11071695 6.41689709 0.24114313 9.625 0.375 C10.98044922 0.42140625 10.98044922 0.42140625 12.36328125 0.46875 C17.25384672 0.68293535 21.40801632 1.12354155 26 3 C26 3.33 26 3.66 26 4 C14.45 3.67 2.9 3.34 -9 3 C-9 2.67 -9 2.34 -9 2 C-6.03 2 -3.06 2 0 2 C0 1.34 0 0.68 0 0 Z"/>
<path transform="translate(265,565)" fill="#246D74" d="M0 0 C-0.33 0.66 -0.66 1.32 -1 2 C-2.93017578 2.41064453 -2.93017578 2.41064453 -5.4453125 2.6328125 C-6.35796875 2.71660156 -7.270625 2.80039062 -8.2109375 2.88671875 C-9.17257813 2.96535156 -10.13421875 3.04398438 -11.125 3.125 C-12.0634375 3.21136719 -13.001875 3.29773438 -13.96875 3.38671875 C-18.99893941 3.83055899 -23.95109628 4.09790118 -29 4 C-29.33 3.34 -29.66 2.68 -30 2 C-20.73601321 -1.0879956 -9.67020319 -0.14457114 0 0 Z"/>
<path transform="translate(975,523)" fill="#126A96" d="M0 0 C0.66 2.31 1.32 4.62 2 7 C1.525625 6.46375 1.05125 5.9275 0.5625 5.375 C-2.97178341 3.47855524 -4.92602476 4.44414602 -8.6796875 5.44140625 C-11.85373339 6.20552841 -14.75615757 6.26480346 -18 6 C-18.66 5.34 -19.32 4.68 -20 4 C-19.10796875 3.87882813 -18.2159375 3.75765625 -17.296875 3.6328125 C-15.54117188 3.38144531 -15.54117188 3.38144531 -13.75 3.125 C-12.58984375 2.96257813 -11.4296875 2.80015625 -10.234375 2.6328125 C-6.46409094 1.89514823 -3.8217084 0 0 0 Z"/>
<path transform="translate(142,579)" fill="#347A80" d="M0 0 C-11.03913945 0.16207546 -21.98440762 -0.34235269 -33 -1 C-33 -1.33 -33 -1.66 -33 -2 C-7.28261549 -4.34121848 -7.28261549 -4.34121848 0 0 Z"/>
<path transform="translate(226,484)" fill="#175F65" d="M0 0 C0 8.91 0 17.82 0 27 C-0.33 27 -0.66 27 -1 27 C-1.65655389 18.31238511 -2.16311941 9.71782637 -2 1 C-4.64 1 -7.28 1 -10 1 C-10 0.67 -10 0.34 -10 0 C-2.25 -1.125 -2.25 -1.125 0 0 Z"/>
<path transform="translate(73,574)" fill="#307377" d="M0 0 C0.99 0.33 1.98 0.66 3 1 C4.9906444 1.14986411 6.98535391 1.24828038 8.98046875 1.31640625 C10.14384766 1.35830078 11.30722656 1.40019531 12.50585938 1.44335938 C14.32827148 1.50233398 14.32827148 1.50233398 16.1875 1.5625 C17.41404297 1.60568359 18.64058594 1.64886719 19.90429688 1.69335938 C22.93608381 1.7995309 25.96795315 1.90157952 29 2 C29 2.33 29 2.66 29 3 C5.16666667 5.44444444 5.16666667 5.44444444 0 2 C0 1.34 0 0.68 0 0 Z"/>
<path transform="translate(277,412)" fill="#297178" d="M0 0 C0.66 0 1.32 0 2 0 C2.33 5.61 2.66 11.22 3 17 C4.32 17.66 5.64 18.32 7 19 C5.0085944 19.38133299 3.00720923 19.71325582 1 20 C0 19 0 19 -0.11352539 17.14233398 C-0.10828857 16.35157471 -0.10305176 15.56081543 -0.09765625 14.74609375 C-0.09443359 13.89208984 -0.09121094 13.03808594 -0.08789062 12.15820312 C-0.07951172 11.26037109 -0.07113281 10.36253906 -0.0625 9.4375 C-0.05798828 8.53580078 -0.05347656 7.63410156 -0.04882812 6.70507812 C-0.03700225 4.46998686 -0.0205222 2.23502563 0 0 Z"/>
<path transform="translate(83,575)" fill="#1C6A70" d="M0 0 C13.70903428 -0.11916117 27.32159605 0.04370709 41 1 C41 1.33 41 1.66 41 2 C37.70880065 2.1964031 34.41703066 2.38060745 31.125 2.5625 C30.18785156 2.61857422 29.25070313 2.67464844 28.28515625 2.73242188 C27.38925781 2.78076172 26.49335937 2.82910156 25.5703125 2.87890625 C24.74289551 2.9260376 23.91547852 2.97316895 23.06298828 3.02172852 C21 3 21 3 19 2 C17.5534758 1.84932786 16.1012066 1.75138964 14.6484375 1.68359375 C13.37226562 1.62075195 13.37226562 1.62075195 12.0703125 1.55664062 C11.18085937 1.51732422 10.29140625 1.47800781 9.375 1.4375 C8.4778125 1.39431641 7.580625 1.35113281 6.65625 1.30664062 C4.43765717 1.20043139 2.2189512 1.09838806 0 1 C0 0.67 0 0.34 0 0 Z"/>
<path transform="translate(209,426)" fill="#226E74" d="M0 0 C-3.2878978 1.84015498 -6.58091326 3.67095047 -9.875 5.5 C-10.81214844 6.02464844 -11.74929687 6.54929687 -12.71484375 7.08984375 C-13.61074219 7.58613281 -14.50664062 8.08242188 -15.4296875 8.59375 C-16.25710449 9.05458984 -17.08452148 9.51542969 -17.93701172 9.99023438 C-20 11 -20 11 -22 11 C-22 10.34 -22 9.68 -22 9 C-19.09465435 7.29241747 -16.17416582 5.61261646 -13.25 3.9375 C-12.0125 3.20950195 -12.0125 3.20950195 -10.75 2.46679688 C-9.95078125 2.01240234 -9.1515625 1.55800781 -8.328125 1.08984375 C-7.5949707 0.66566162 -6.86181641 0.24147949 -6.10644531 -0.19555664 C-3.61993956 -1.14514362 -2.46152694 -0.89753304 0 0 Z"/>
<path transform="translate(834,504)" fill="#09659B" d="M0 0 C0.92606971 2.51525107 1.12369565 3.66543273 0.1796875 6.21875 C-2.38619488 10.70520303 -4.57904806 14.09480301 -9 17 C-7.21873667 13.3655031 -5.29802134 9.81115063 -3.375 6.25 C-2.88773438 5.34701172 -2.88773438 5.34701172 -2.390625 4.42578125 C-1.59429415 2.95022703 -0.79722161 1.47507314 0 0 Z"/>
<path transform="translate(963,487)" fill="#0E6697" d="M0 0 C-2.79669105 1.47160737 -5.556774 2.59110632 -8.5625 3.5625 C-9.32691406 3.81128906 -10.09132813 4.06007813 -10.87890625 4.31640625 C-11.57886719 4.54199219 -12.27882813 4.76757812 -13 5 C-13.99 5.33 -14.98 5.66 -16 6 C-16 5.34 -16 4.68 -16 4 C-11.23534101 -0.41172128 -6.2256337 -0.12207125 0 0 Z"/>
<path transform="translate(267,553)" fill="#1F6B72" d="M0 0 C0 0.33 0 0.66 0 1 C-5.78357065 3.01167675 -10.90218999 3.22084624 -17 3 C-11.27901246 0.04335518 -6.34551212 -0.10755105 0 0 Z"/>
<path transform="translate(139,561)" fill="#246E74" d="M0 0 C9.59453303 2.89066059 9.59453303 2.89066059 13 6 C7.57689095 5.56615128 4.29855944 4.35497322 0 1 C0 0.67 0 0.34 0 0 Z"/>
<path transform="translate(945,518)" fill="#0D699C" d="M0 0 C1.12894876 0.93274109 2.25300876 1.87140122 3.375 2.8125 C4.00148438 3.33457031 4.62796875 3.85664062 5.2734375 4.39453125 C7 6 7 6 9 9 C6.625 8.75 6.625 8.75 4 8 C2.6875 5.9375 2.6875 5.9375 2 4 C1.34 4 0.68 4 0 4 C0 2.68 0 1.36 0 0 Z"/>
<path transform="translate(181,590)" fill="#30777C" d="M0 0 C3.63 0 7.26 0 11 0 C7 3 7 3 3.25 2.6875 C2.1775 2.460625 1.105 2.23375 0 2 C0 1.34 0 0.68 0 0 Z"/>
<path transform="translate(174,431)" fill="#1F6A72" d="M0 0 C3.94876098 0.56410871 6.75634176 1.65735794 10 4 C10.33 4.99 10.66 5.98 11 7 C6.89188572 5.55007731 3.53144334 3.54592427 0 1 C0 0.67 0 0.34 0 0 Z"/>
<path transform="translate(135,567)" fill="#307981" d="M0 0 C1.258125 -0.020625 2.51625 -0.04125 3.8125 -0.0625 C4.52019531 -0.07410156 5.22789062 -0.08570313 5.95703125 -0.09765625 C8 0 8 0 11 1 C11 1.66 11 2.32 11 3 C6.78121808 3.19622241 3.82989106 2.80230168 0 1 C0 0.67 0 0.34 0 0 Z"/>
<path transform="translate(215,484)" fill="#196068" d="M0 0 C0 0.33 0 0.66 0 1 C-6.435 1.495 -6.435 1.495 -13 2 C-13 1.34 -13 0.68 -13 0 C-8.38926889 -1.29676812 -4.66159911 -0.71109139 0 0 Z"/>
<path transform="translate(198,566)" fill="#236E75" d="M0 0 C1.32 0.33 2.64 0.66 4 1 C1.03 3.475 1.03 3.475 -2 6 C-2.66 5.67 -3.32 5.34 -4 5 C-2.68 3.35 -1.36 1.7 0 0 Z"/>
<path transform="translate(254,545)" fill="#1D6A71" d="M0 0 C-3.03525486 2.02350324 -4.19426202 2.32124018 -7.6875 2.625 C-8.49574219 2.69976563 -9.30398437 2.77453125 -10.13671875 2.8515625 C-10.75160156 2.90054688 -11.36648437 2.94953125 -12 3 C-8.2391768 -0.7608232 -5.0273023 -0.25136512 0 0 Z"/>
<path transform="translate(975,485)" fill="#146794" d="M0 0 C0.93065133 2.60582371 1.14917407 3.64198224 0.0625 6.25 C-0.4634375 7.11625 -0.4634375 7.11625 -1 8 C-1.99 7.67 -2.98 7.34 -4 7 C-4 6.34 -4 5.68 -4 5 C-3.01 5 -2.02 5 -1 5 C-0.67 3.35 -0.34 1.7 0 0 Z"/>
<path transform="translate(888,542)" fill="#2B7DA2" d="M0 0 C4 1 4 1 4 1 Z"/>
<path transform="translate(610,531)" fill="#252C2C" d="M0 0 C1 4 1 4 1 4 Z"/>
<path transform="translate(720,474)" fill="#2A3C3E" d="M0 0 C4 1 4 1 4 1 Z"/>
<path transform="translate(880,541)" fill="#287EA5" d="M0 0 C3 1 3 1 3 1 Z"/>
<path transform="translate(475,518)" fill="#222A26" d="M0 0 C0.66 0 1.32 0 2 0 C1.67 0.66 1.34 1.32 1 2 C0.67 1.34 0.34 0.68 0 0 Z"/>
<path transform="translate(713,496)" fill="#1E2629" d="M0 0 C0.66 0 1.32 0 2 0 C1.67 0.66 1.34 1.32 1 2 C0.67 1.34 0.34 0.68 0 0 Z"/>
<path transform="translate(0,0)" fill="#2C4A53" d=""/>
<path transform="translate(133,580)" fill="#43868C" d="M0 0 C2 1 2 1 2 1 Z"/>
<path transform="translate(118,579)" fill="#47898C" d="M0 0 C2 1 2 1 2 1 Z"/>
<path transform="translate(0,0)" fill="#313B3B" d=""/>
<path transform="translate(114,557)" fill="#3C888F" d="M0 0 C2 1 2 1 2 1 Z"/>
<path transform="translate(0,0)" fill="#2B312F" d=""/>
<path transform="translate(0,0)" fill="#262E2D" d=""/>
<path transform="translate(0,0)" fill="#242A29" d=""/>
<path transform="translate(0,0)" fill="#1F82B3" d=""/>
<path transform="translate(0,0)" fill="#1E82B2" d=""/>
<path transform="translate(372,503)" fill="#222827" d="M0 0 C2 1 2 1 2 1 Z"/>
<path transform="translate(633,496)" fill="#1E2324" d="M0 0 C2 1 2 1 2 1 Z"/>
<path transform="translate(0,0)" fill="#1A7DB0" d=""/>
<path transform="translate(0,0)" fill="#2F4948" d=""/>
<path transform="translate(0,0)" fill="#212727" d=""/>
<path transform="translate(483,481)" fill="#26302E" d="M0 0 C2 1 2 1 2 1 Z"/>
<path transform="translate(0,0)" fill="#1F7FB0" d=""/>
<path transform="translate(710,474)" fill="#283735" d="M0 0 C2 1 2 1 2 1 Z"/>
<path transform="translate(438,473)" fill="#2A3331" d="M0 0 C2 1 2 1 2 1 Z"/>
<path transform="translate(434,473)" fill="#2B3633" d="M0 0 C2 1 2 1 2 1 Z"/>
<path transform="translate(138,429)" fill="#3D8990" d="M0 0 C2 1 2 1 2 1 Z"/>
<path transform="translate(0,0)" fill="#817D6B" d=""/>
<path transform="translate(0,0)" fill="#408187" d=""/>
<path transform="translate(0,0)" fill="#41868C" d=""/>
<path transform="translate(0,0)" fill="#43878F" d=""/>
<path transform="translate(0,0)" fill="#46898D" d=""/>
<path transform="translate(0,0)" fill="#44878D" d=""/>
<path transform="translate(0,0)" fill="#45898C" d=""/>
<path transform="translate(0,0)" fill="#3E7E84" d=""/>
<path transform="translate(0,0)" fill="#3F8A93" d=""/>
<path transform="translate(0,0)" fill="#448D92" d=""/>
<path transform="translate(0,0)" fill="#418A90" d=""/>
<path transform="translate(0,0)" fill="#3D8B8F" d=""/>
<path transform="translate(0,0)" fill="#3F888E" d=""/>
<path transform="translate(0,0)" fill="#3D8990" d=""/>
<path transform="translate(0,0)" fill="#2F3836" d=""/>
<path transform="translate(0,0)" fill="#344340" d=""/>
<path transform="translate(0,0)" fill="#354746" d=""/>
<path transform="translate(0,0)" fill="#38524F" d=""/>
<path transform="translate(0,0)" fill="#2D7DA5" d=""/>
<path transform="translate(0,0)" fill="#273032" d=""/>
<path transform="translate(0,0)" fill="#2E3837" d=""/>
<path transform="translate(0,0)" fill="#2D3631" d=""/>
<path transform="translate(0,0)" fill="#2D3635" d=""/>
<path transform="translate(0,0)" fill="#2E3835" d=""/>
<path transform="translate(0,0)" fill="#2E3634" d=""/>
<path transform="translate(0,0)" fill="#3C8890" d=""/>
<path transform="translate(0,0)" fill="#3D888F" d=""/>
<path transform="translate(0,0)" fill="#3C888F" d=""/>
<path transform="translate(0,0)" fill="#2C7FA6" d=""/>
<path transform="translate(0,0)" fill="#2A7DA8" d=""/>
<path transform="translate(0,0)" fill="#287FA9" d=""/>
<path transform="translate(0,0)" fill="#287FA6" d=""/>
<path transform="translate(0,0)" fill="#277DA3" d=""/>
<path transform="translate(0,0)" fill="#273232" d=""/>
<path transform="translate(0,0)" fill="#2C3735" d=""/>
<path transform="translate(0,0)" fill="#323837" d=""/>
<path transform="translate(0,0)" fill="#2E3633" d=""/>
<path transform="translate(0,0)" fill="#2E3735" d=""/>
<path transform="translate(0,0)" fill="#324542" d=""/>
<path transform="translate(0,0)" fill="#3B5555" d=""/>
<path transform="translate(0,0)" fill="#3F878D" d=""/>
<path transform="translate(0,0)" fill="#303E3C" d=""/>
<path transform="translate(0,0)" fill="#287DA5" d=""/>
<path transform="translate(0,0)" fill="#287DA7" d=""/>
<path transform="translate(0,0)" fill="#2F3633" d=""/>
<path transform="translate(0,0)" fill="#2D3432" d=""/>
<path transform="translate(0,0)" fill="#2D3534" d=""/>
<path transform="translate(0,0)" fill="#2F3E3A" d=""/>
<path transform="translate(0,0)" fill="#3A5556" d=""/>
<path transform="translate(0,0)" fill="#2980A9" d=""/>
<path transform="translate(0,0)" fill="#252E31" d=""/>
<path transform="translate(0,0)" fill="#2B3030" d=""/>
<path transform="translate(0,0)" fill="#2A7EA7" d=""/>
<path transform="translate(0,0)" fill="#2A332F" d=""/>
<path transform="translate(0,0)" fill="#2D3634" d=""/>
<path transform="translate(0,0)" fill="#3E8991" d=""/>
<path transform="translate(0,0)" fill="#385151" d=""/>
<path transform="translate(0,0)" fill="#287DA4" d=""/>
<path transform="translate(0,0)" fill="#257BA4" d=""/>
<path transform="translate(0,0)" fill="#2A3232" d=""/>
<path transform="translate(0,0)" fill="#2A3130" d=""/>
<path transform="translate(0,0)" fill="#287CA7" d=""/>
<path transform="translate(0,0)" fill="#272D2D" d=""/>
<path transform="translate(0,0)" fill="#334E4F" d=""/>
<path transform="translate(0,0)" fill="#287FA8" d=""/>
<path transform="translate(0,0)" fill="#2B7EA6" d=""/>
<path transform="translate(0,0)" fill="#257CA9" d=""/>
<path transform="translate(0,0)" fill="#252B2A" d=""/>
<path transform="translate(0,0)" fill="#232B2A" d=""/>
<path transform="translate(0,0)" fill="#252A28" d=""/>
<path transform="translate(0,0)" fill="#232A28" d=""/>
<path transform="translate(0,0)" fill="#262E2A" d=""/>
<path transform="translate(0,0)" fill="#344F4F" d=""/>
<path transform="translate(0,0)" fill="#2B332F" d=""/>
<path transform="translate(0,0)" fill="#1D7EAA" d=""/>
<path transform="translate(0,0)" fill="#242C29" d=""/>
<path transform="translate(0,0)" fill="#284957" d=""/>
<path transform="translate(0,0)" fill="#232E2F" d=""/>
<path transform="translate(0,0)" fill="#237EA8" d=""/>
<path transform="translate(0,0)" fill="#1E7FB2" d=""/>
<path transform="translate(0,0)" fill="#1C7EB1" d=""/>
<path transform="translate(0,0)" fill="#222A27" d=""/>
<path transform="translate(0,0)" fill="#212B29" d=""/>
<path transform="translate(0,0)" fill="#222B2D" d=""/>
<path transform="translate(0,0)" fill="#252D2B" d=""/>
<path transform="translate(0,0)" fill="#222826" d=""/>
<path transform="translate(0,0)" fill="#1F2827" d=""/>
<path transform="translate(0,0)" fill="#232B29" d=""/>
<path transform="translate(0,0)" fill="#21292A" d=""/>
<path transform="translate(0,0)" fill="#252B29" d=""/>
<path transform="translate(0,0)" fill="#232A28" d=""/>
<path transform="translate(0,0)" fill="#1B7FB0" d=""/>
<path transform="translate(0,0)" fill="#242C2A" d=""/>
<path transform="translate(0,0)" fill="#242B2A" d=""/>
<path transform="translate(0,0)" fill="#242A2B" d=""/>
<path transform="translate(0,0)" fill="#222928" d=""/>
<path transform="translate(0,0)" fill="#272B2A" d=""/>
<path transform="translate(0,0)" fill="#3C8B95" d=""/>
<path transform="translate(0,0)" fill="#212826" d=""/>
<path transform="translate(0,0)" fill="#212E31" d=""/>
<path transform="translate(0,0)" fill="#1F2626" d=""/>
<path transform="translate(0,0)" fill="#212827" d=""/>
<path transform="translate(0,0)" fill="#242B29" d=""/>
<path transform="translate(0,0)" fill="#202727" d=""/>
<path transform="translate(0,0)" fill="#438E94" d=""/>
<path transform="translate(0,0)" fill="#1E83B4" d=""/>
<path transform="translate(0,0)" fill="#2081B3" d=""/>
<path transform="translate(0,0)" fill="#202626" d=""/>
<path transform="translate(0,0)" fill="#1C7EB5" d=""/>
<path transform="translate(0,0)" fill="#177CB2" d=""/>
<path transform="translate(0,0)" fill="#222728" d=""/>
<path transform="translate(0,0)" fill="#222828" d=""/>
<path transform="translate(0,0)" fill="#222726" d=""/>
<path transform="translate(0,0)" fill="#232926" d=""/>
<path transform="translate(0,0)" fill="#1F2826" d=""/>
<path transform="translate(0,0)" fill="#1A7BB1" d=""/>
<path transform="translate(0,0)" fill="#1F2726" d=""/>
<path transform="translate(0,0)" fill="#232826" d=""/>
<path transform="translate(0,0)" fill="#1F2623" d=""/>
<path transform="translate(0,0)" fill="#222A26" d=""/>
<path transform="translate(0,0)" fill="#222925" d=""/>
<path transform="translate(0,0)" fill="#1F2724" d=""/>
<path transform="translate(0,0)" fill="#212625" d=""/>
<path transform="translate(0,0)" fill="#2082B1" d=""/>
<path transform="translate(0,0)" fill="#212925" d=""/>
<path transform="translate(0,0)" fill="#1F2725" d=""/>
<path transform="translate(0,0)" fill="#1D2324" d=""/>
<path transform="translate(0,0)" fill="#222C2B" d=""/>
<path transform="translate(0,0)" fill="#197DAD" d=""/>
<path transform="translate(0,0)" fill="#212828" d=""/>
<path transform="translate(0,0)" fill="#252B27" d=""/>
<path transform="translate(0,0)" fill="#232A28" d=""/>
<path transform="translate(0,0)" fill="#222B27" d=""/>
<path transform="translate(0,0)" fill="#2183AF" d=""/>
<path transform="translate(0,0)" fill="#1B80B0" d=""/>
<path transform="translate(0,0)" fill="#1F80B2" d=""/>
<path transform="translate(0,0)" fill="#1F2625" d=""/>
<path transform="translate(0,0)" fill="#2B84A9" d=""/>
<path transform="translate(0,0)" fill="#1A80B4" d=""/>
<path transform="translate(0,0)" fill="#2E80A7" d=""/>
<path transform="translate(0,0)" fill="#232829" d=""/>
<path transform="translate(0,0)" fill="#232726" d=""/>
<path transform="translate(0,0)" fill="#242927" d=""/>
<path transform="translate(0,0)" fill="#212827" d=""/>
<path transform="translate(0,0)" fill="#222827" d=""/>
<path transform="translate(0,0)" fill="#212826" d=""/>
<path transform="translate(0,0)" fill="#232A29" d=""/>
<path transform="translate(0,0)" fill="#243537" d=""/>
<path transform="translate(0,0)" fill="#2283B1" d=""/>
<path transform="translate(0,0)" fill="#207FAF" d=""/>
<path transform="translate(0,0)" fill="#283D41" d=""/>
<path transform="translate(0,0)" fill="#232A2A" d=""/>
<path transform="translate(0,0)" fill="#252D2D" d=""/>
<path transform="translate(0,0)" fill="#324949" d=""/>
<path transform="translate(0,0)" fill="#24769B" d=""/>
<path transform="translate(0,0)" fill="#2080AB" d=""/>
<path transform="translate(0,0)" fill="#387F9C" d=""/>
<path transform="translate(0,0)" fill="#272D2C" d=""/>
<path transform="translate(0,0)" fill="#23759B" d=""/>
<path transform="translate(0,0)" fill="#262B27" d=""/>
<path transform="translate(0,0)" fill="#232B29" d=""/>
<path transform="translate(0,0)" fill="#2E4A4B" d=""/>
<path transform="translate(0,0)" fill="#267EA6" d=""/>
<path transform="translate(0,0)" fill="#2481AA" d=""/>
<path transform="translate(0,0)" fill="#2E4748" d=""/>
<path transform="translate(0,0)" fill="#272C2E" d=""/>
<path transform="translate(0,0)" fill="#1C7EB1" d=""/>
<path transform="translate(0,0)" fill="#262B2A" d=""/>
<path transform="translate(0,0)" fill="#2B3534" d=""/>
<path transform="translate(0,0)" fill="#1D82B0" d=""/>
<path transform="translate(0,0)" fill="#2B3634" d=""/>
<path transform="translate(0,0)" fill="#2980A7" d=""/>
<path transform="translate(0,0)" fill="#2C3634" d=""/>
<path transform="translate(0,0)" fill="#3782A1" d=""/>
<path transform="translate(0,0)" fill="#3181A8" d=""/>
<path transform="translate(0,0)" fill="#2D3532" d=""/>
<path transform="translate(0,0)" fill="#2A3533" d=""/>
<path transform="translate(0,0)" fill="#2F81A7" d=""/>
<path transform="translate(0,0)" fill="#2F82A6" d=""/>
<path transform="translate(0,0)" fill="#2F6074" d=""/>
<path transform="translate(0,0)" fill="#2C5464" d=""/>
<path transform="translate(0,0)" fill="#2E515D" d=""/>
<path transform="translate(0,0)" fill="#282F2D" d=""/>
<path transform="translate(0,0)" fill="#2A3231" d=""/>
<path transform="translate(0,0)" fill="#27302B" d=""/>
<path transform="translate(0,0)" fill="#2A332F" d=""/>
<path transform="translate(0,0)" fill="#2B80A7" d=""/>
<path transform="translate(0,0)" fill="#222A2A" d=""/>
<path transform="translate(0,0)" fill="#2A312F" d=""/>
<path transform="translate(0,0)" fill="#2B322F" d=""/>
<path transform="translate(0,0)" fill="#242D2D" d=""/>
<path transform="translate(0,0)" fill="#334C4B" d=""/>
<path transform="translate(0,0)" fill="#1F82B2" d=""/>
<path transform="translate(0,0)" fill="#222B2C" d=""/>
<path transform="translate(0,0)" fill="#202929" d=""/>
<path transform="translate(0,0)" fill="#1D82B3" d=""/>
<path transform="translate(0,0)" fill="#27302E" d=""/>
<path transform="translate(0,0)" fill="#1D7FB0" d=""/>
<path transform="translate(0,0)" fill="#2A312E" d=""/>
<path transform="translate(0,0)" fill="#202A2B" d=""/>
<path transform="translate(0,0)" fill="#2A3531" d=""/>
<path transform="translate(0,0)" fill="#2B3232" d=""/>
<path transform="translate(0,0)" fill="#2D3632" d=""/>
<path transform="translate(0,0)" fill="#2C7CA4" d=""/>
<path transform="translate(0,0)" fill="#3B5657" d=""/>
<path transform="translate(0,0)" fill="#418C90" d=""/>
<path transform="translate(0,0)" fill="#30799A" d=""/>
<path transform="translate(0,0)" fill="#374545" d=""/>
<path transform="translate(0,0)" fill="#384646" d=""/>
<path transform="translate(0,0)" fill="#35403B" d=""/>
<path transform="translate(0,0)" fill="#2F423E" d=""/>
<path transform="translate(0,0)" fill="#324441" d=""/>
<path transform="translate(0,0)" fill="#3A4F4B" d=""/>
<path transform="translate(0,0)" fill="#39524E" d=""/>
<path transform="translate(0,0)" fill="#337893" d=""/>
<path transform="translate(0,0)" fill="#37403D" d=""/>
<path transform="translate(0,0)" fill="#3C8A8F" d=""/>
<path transform="translate(0,0)" fill="#418992" d=""/>
<path transform="translate(0,0)" fill="#3A888F" d=""/>
<path transform="translate(0,0)" fill="#39403B" d=""/>
<path transform="translate(0,0)" fill="#38413C" d=""/>
<path transform="translate(0,0)" fill="#3B8A91" d=""/>
<path transform="translate(0,0)" fill="#3E8A92" d=""/>
<path transform="translate(0,0)" fill="#3F8C91" d=""/>
<path transform="translate(0,0)" fill="#43878C" d=""/>
<path transform="translate(0,0)" fill="#3A8A91" d=""/>
<path transform="translate(0,0)" fill="#3D878E" d=""/>
<path transform="translate(0,0)" fill="#428A8E" d=""/>
<path transform="translate(0,0)" fill="#4E8686" d=""/>
</svg>